<svg xmlns="http://www.w3.org/2000/svg" version="1.1" xmlns:xlink="http://www.w3.org/1999/xlink" xmlns:svgjs="http://svgjs.com/svgjs" width="100%" height="100%" viewBox="0 0 1000 600"><rect width="1000" height="600" x="0" y="0" fill="#ffffff"/><g><rect width="333.3333333333333" height="333.3333333333333" rx="13.333333333333334" ry="13.333333333333334" y="327.23529533240674" fill="#a04ef6" transform="matrix(0.4098184925414621,0,0,0.4098184925414621,0,97.5898393232478)" x="305.0131530761719"/><path d="M472.1924309749771 568.9019764319L472.1924309749771 568.9019764319Q457.2673449299615 568.9019764319 444.0710333303145 565.271550096626Q430.90353463809026 561.641123761352 421.3664622811401 554.5819614427635L421.3664622811401 554.5819614427635Q418.05297792751696 552.3057417563615 417.41909396421516 549.193947754698Q416.81402290833614 546.0821537530345 418.1394166497854 543.3737404552903Q419.49362329865744 540.694140064969 422.2020365964016 539.7433141200163Q424.881636986723 538.8213010824863 428.4256245997286 541.0975207688883L428.4256245997286 541.0975207688883Q437.76100660471906 547.9549927355172 448.33534362889037 550.8362834777981Q458.9096806530617 553.746387127502 472.1924309749771 553.746387127502L472.1924309749771 553.746387127502Q490.86319498495806 553.746387127502 499.8816350082976 546.8024764386048Q508.9000750316372 539.8585657497075 508.9000750316372 528.4486544102747L508.9000750316372 528.4486544102747Q508.9000750316372 519.3149627572438 502.3883579540821 513.9269490691784Q495.8478279691042 508.53893538111294 480.49054831274645 505.42714137944944L480.49054831274645 505.42714137944944L458.9096806530617 501.0475794511823Q439.40334232781925 496.8985207822977 429.77983124860066 487.47670005503875Q420.1275072619593 478.02606642035704 420.1275072619593 462.26540606007995L420.1275072619593 462.26540606007995Q420.1275072619593 449.18434609012417 426.8697275988969 439.44558338121436Q433.61194793583445 429.70682067230456 445.62693033114624 424.28999407681624Q457.6707256338808 418.90198038875076 473.43138599415795 418.90198038875076L473.43138599415795 418.90198038875076Q486.51244596411374 418.90198038875076 497.8071056738553 422.53240672402484Q509.1305782910197 426.1628330592989 518.2354570366276 433.4236857298471L518.2354570366276 433.4236857298471Q521.1455606863315 435.69990541624907 521.6641930199421 438.7252606956441Q522.1828253535526 441.72180306761635 520.7421799824122 444.2285260134008Q519.2727217038488 446.70643605176247 516.5931213135275 447.42675873733276Q513.8847080157833 448.147081422903 510.16784295824084 445.870861736501L510.16784295824084 445.870861736501Q501.8697256204715 439.44558338121436 492.8224726897091 436.73717008347023Q483.8040326663696 434.0575696931489 473.2296956421983 434.0575696931489L473.2296956421983 434.0575696931489Q456.83515131861935 434.0575696931489 447.09638860970955 441.6353643453479Q437.3288129933769 449.18434609012417 437.3288129933769 461.6315220967781L437.3288129933769 461.6315220967781Q437.3288129933769 471.60078806507045 443.46596227443547 477.420995364478Q449.5742986480712 483.21238975646287 463.4909329332885 485.920803054207L463.4909329332885 485.920803054207L485.04298768555043 490.47324242701103Q506.0187842893562 494.82399144785535 516.0744889799169 503.64074111923526Q526.1301936704776 512.4574907906151 526.1301936704776 527.6130800950132L526.1301936704776 527.6130800950132Q526.1301936704776 539.8585657497075 519.5896636854998 549.193947754698Q513.0491337005218 558.5293297596884 500.9188996755188 563.7156530957943Q488.7886656505157 568.9019764319 472.1924309749771 568.9019764319Z " fill="#ffffff" transform="matrix(0.4098184925414621,0,0,0.4098184925414621,0,97.5898393232478)"/><path d="M767.4075689879489 539.2125470869563L767.4075689879489 539.2125470869563Q753.0611539309759 539.2125470869563 745.8763580219911 531.6105694800303Q738.714738874003 524.0317686341012 738.714738874003 509.66217681613165L738.714738874003 509.66217681613165L738.714738874003 467.10964362614413L727.5203633125848 467.10964362614413Q721.6798195414101 467.10964362614413 721.6798195414101 461.77898859689736L721.6798195414101 461.77898859689736Q721.6798195414101 456.61057089462764 727.5203633125848 456.61057089462764L727.5203633125848 456.61057089462764L738.714738874003 456.61057089462764L738.714738874003 437.4202127893392Q738.714738874003 430.5830682953052 745.551883368037 430.5830682953052L745.551883368037 430.5830682953052Q752.2267905350939 430.5830682953052 752.2267905350939 437.4202127893392L752.2267905350939 437.4202127893392L752.2267905350939 456.61057089462764L773.2481127591236 456.61057089462764Q779.0886565302983 456.61057089462764 779.0886565302983 461.77898859689736L779.0886565302983 461.77898859689736Q779.0886565302983 467.10964362614413 773.2481127591236 467.10964362614413L773.2481127591236 467.10964362614413L752.2267905350939 467.10964362614413L752.2267905350939 508.3411014393183Q752.2267905350939 517.8435734479756 756.2363701875273 522.780223540278Q760.2459498399608 527.6936968715838 769.2385331066902 527.6936968715838L769.2385331066902 527.6936968715838Q772.4137493632415 527.6936968715838 774.5923648969336 527.0215708026788Q776.7478036696291 526.3494447337738 778.4165304613933 526.3494447337738L778.4165304613933 526.3494447337738Q779.9230199261805 526.1872074067967 780.9196206490396 527.3692222176297Q781.9393981328956 528.5280602674659 781.9393981328956 531.3556251090664L781.9393981328956 531.3556251090664Q781.9393981328956 533.3720033157815 781.1745650200037 535.0407301075458Q780.4329086681084 536.70945689931 778.6019445493671 537.381582968215L778.6019445493671 537.381582968215Q776.5855663426521 538.0305322761233 773.3408198031105 538.6331280620382Q770.0728965025722 539.2125470869563 767.4075689879489 539.2125470869563ZM800.9443421502102 437.0725613743883L800.9443421502102 437.0725613743883Q792.1139962104579 437.0725613743883 792.1139962104579 428.7289274155672L792.1139962104579 428.7289274155672Q792.1139962104579 420.57070754471994 800.9443421502102 420.57070754471994L800.9443421502102 420.57070754471994Q809.7978648509593 420.57070754471994 809.7978648509593 428.7289274155672L809.7978648509593 428.7289274155672Q809.7978648509593 437.0725613743883 800.9443421502102 437.0725613743883ZM800.9443421502102 538.5404210180512L800.9443421502102 538.5404210180512Q794.2694349831534 538.5404210180512 794.2694349831534 531.1933877820893L794.2694349831534 531.1933877820893L794.2694349831534 462.93782664673364Q794.2694349831534 455.7762074987455 800.9443421502102 455.7762074987455L800.9443421502102 455.7762074987455Q807.804663405241 455.7762074987455 807.804663405241 462.93782664673364L807.804663405241 462.93782664673364L807.804663405241 531.1933877820893Q807.804663405241 538.5404210180512 800.9443421502102 538.5404210180512ZM839.9971844296922 538.8648956720053L839.9971844296922 538.8648956720053Q833.3222772626353 538.8648956720053 833.3222772626353 531.8655138509944L833.3222772626353 531.8655138509944L833.3222772626353 462.28887733882533Q833.3222772626353 455.42855608379466 839.8349471027151 455.42855608379466L839.8349471027151 455.42855608379466Q846.509854269772 455.42855608379466 846.509854269772 462.28887733882533L846.509854269772 462.28887733882533L846.509854269772 470.2848598826955Q850.1717825072545 462.93782664673364 856.6844523473344 459.0209540382871Q863.1971221874142 455.1040814298405 871.8652308001894 455.1040814298405L871.8652308001894 455.1040814298405Q890.8933515785008 455.1040814298405 896.2471833687442 471.62911202050554L896.2471833687442 471.62911202050554Q899.9091116062269 463.9576041305895 907.0939075152116 459.53084278021504Q914.2555266631998 455.1040814298405 923.5957613448801 455.1040814298405L923.5957613448801 455.1040814298405Q950.6430414280584 455.1040814298405 950.6430414280584 487.1343651273147L950.6430414280584 487.1343651273147L950.6430414280584 531.8655138509944Q950.6430414280584 538.8648956720053 943.8058969340244 538.8648956720053L943.8058969340244 538.8648956720053Q937.1309897669676 538.8648956720053 937.1309897669676 531.8655138509944L937.1309897669676 531.8655138509944L937.1309897669676 487.8064911962198Q937.1309897669676 476.6352923957982 933.1909403975243 471.3741676495416Q929.2740677890777 466.11304290328496 920.2583077613516 466.11304290328496L920.2583077613516 466.11304290328496Q910.4313610987401 466.11304290328496 904.5908173275653 473.1356014852927Q898.7502735563907 480.13498330630375 898.7502735563907 491.8160708486532L898.7502735563907 491.8160708486532L898.7502735563907 531.8655138509944Q898.7502735563907 538.8648956720053 891.8899523013599 538.8648956720053L891.8899523013599 538.8648956720053Q885.2150451343031 538.8648956720053 885.2150451343031 531.8655138509944L885.2150451343031 531.8655138509944L885.2150451343031 487.8064911962198Q885.2150451343031 476.6352923957982 881.2981725258566 471.3741676495416Q877.3812999174099 466.11304290328496 868.3655398896839 466.11304290328496L868.3655398896839 466.11304290328496Q858.3531791390985 466.11304290328496 852.6053424119108 473.1356014852927Q846.8343289237262 480.13498330630375 846.8343289237262 491.8160708486532L846.8343289237262 491.8160708486532L846.8343289237262 531.8655138509944Q846.8343289237262 538.8648956720053 839.9971844296922 538.8648956720053ZM1012.3859327233343 539.2125470869563L1012.3859327233343 539.2125470869563Q993.1955746180458 539.2125470869563 982.0011990566276 527.9486412425479Q970.8300002562061 516.6847353981393 970.8300002562061 497.3321399658738L970.8300002562061 497.3321399658738Q970.8300002562061 484.8166890276422 975.8361806314987 475.22150997499796Q980.8423610067913 465.62633092235376 989.6031766635534 460.3652061760971Q998.3639923203156 455.1040814298405 1009.8828425356879 455.1040814298405L1009.8828425356879 455.1040814298405Q1026.407873126353 455.1040814298405 1035.7481078080332 465.69586120534393Q1045.0883424897136 476.28764098084736 1045.0883424897136 494.8290497782275L1045.0883424897136 494.8290497782275Q1045.0883424897136 499.9974674804972 1039.247798718539 499.9974674804972L1039.247798718539 499.9974674804972L984.0175772633427 499.9974674804972Q984.6897033322476 513.8339937955421 992.0135598072128 521.1114967485139Q999.3605930431747 528.3658229404889 1012.3859327233343 528.3658229404889L1012.3859327233343 528.3658229404889Q1017.8788250795582 528.3658229404889 1023.5571315237559 526.9520405196886Q1029.2354379679537 525.5150813378916 1034.5660929972005 521.8531531004091L1034.5660929972005 521.8531531004091Q1038.4134353226568 519.3500629127627 1041.00923255429 520.8565523775499Q1043.5818530249264 522.363041842337 1043.6745600689133 525.4455510549014Q1043.7440903519037 528.5280602674659 1040.244399441398 530.8689131281352L1040.244399441398 530.8689131281352Q1034.7515070851741 534.8784927805686 1027.1495294782483 537.0339315532641Q1019.5475518713224 539.2125470869563 1012.3859327233343 539.2125470869563ZM1010.2073171896421 465.1164421804258L1010.2073171896421 465.1164421804258Q998.6884669742698 465.1164421804258 992.0135598072128 472.3012380894106Q985.338652640156 479.4628572373987 984.1798145903198 491.1439447797482L984.1798145903198 491.1439447797482L1033.407254947364 491.1439447797482Q1032.897366205436 478.79073116849366 1026.987292151271 471.9535866744597Q1021.0540413361094 465.1164421804258 1010.2073171896421 465.1164421804258ZM1091.9749299860887 539.2125470869563L1091.9749299860887 539.2125470869563Q1084.4656594231496 539.2125470869563 1076.8868585772207 537.288875924228Q1069.2848809702946 535.3652047614999 1062.772211130215 531.0311504551123L1062.772211130215 531.0311504551123Q1059.7824089616374 529.200186336371 1059.8519392446274 526.2799144507836Q1059.9446462886144 523.3596425651963 1062.10008506131 521.690915773432Q1064.2787005950022 520.0221889816678 1067.6161541785305 521.690915773432L1067.6161541785305 521.690915773432Q1074.1288240186104 525.7004954258655 1080.224312160749 527.2765151736428Q1086.296623541891 528.8525349214201 1092.3225814010395 528.8525349214201L1092.3225814010395 528.8525349214201Q1101.825053409697 528.8525349214201 1106.6689964580123 525.3528440109146Q1111.5129395063282 521.8531531004091 1111.5129395063282 515.8503720022572L1111.5129395063282 515.8503720022572Q1111.5129395063282 511.1686662809188 1108.3377232497767 508.4106317223085Q1105.1625069932252 505.6757739246949 1098.3253624991912 504.1692844599078L1098.3253624991912 504.1692844599078L1083.1445840463364 500.83183087637934Q1062.4477364762606 496.31236248201793 1062.4477364762606 479.4628572373987L1062.4477364762606 479.4628572373987Q1062.4477364762606 468.4538957639542 1071.2085521330227 461.77898859689736Q1079.9693677897849 455.1040814298405 1094.153545519781 455.1040814298405L1094.153545519781 455.1040814298405Q1101.3151646677688 455.1040814298405 1107.9900718348258 457.0277525925687Q1114.6649790018828 458.9514237552969 1120.0188107921263 463.12324073470745L1120.0188107921263 463.12324073470745Q1122.8463756337267 465.1164421804258 1122.5219009797725 467.94400702202626Q1122.1742495648216 470.7947486246235 1119.9261037481392 472.3707683724008Q1117.6779579314568 473.9699648811748 1114.5027416749058 471.9535866744597L1114.5027416749058 471.9535866744597Q1109.496561299613 468.61613309093127 1104.3281435973431 467.04011334315396Q1099.1597258950733 465.44091683437995 1094.153545519781 465.44091683437995L1094.153545519781 465.44091683437995Q1084.8133108381007 465.44091683437995 1079.9693677897849 469.12602183285924Q1075.1254247414695 472.7879500703418 1075.1254247414695 478.79073116849366L1075.1254247414695 478.79073116849366Q1075.1254247414695 488.15414261117064 1087.478638352724 490.81947012579406L1087.478638352724 490.81947012579406L1102.659416805579 493.9946863823454Q1113.3439036250693 496.31236248201793 1118.836795981293 501.4112499012975Q1124.3528650985138 506.510137320577 1124.3528650985138 515.1782459333522L1124.3528650985138 515.1782459333522Q1124.3528650985138 526.3494447337738 1115.4993423977648 532.7925842908634Q1106.6689964580123 539.2125470869563 1091.9749299860887 539.2125470869563ZM1181.4140506724511 539.2125470869563L1181.4140506724511 539.2125470869563Q1162.2236925671627 539.2125470869563 1151.052493766741 527.9486412425479Q1139.8812949663197 516.6847353981393 1139.8812949663197 497.3321399658738L1139.8812949663197 497.3321399658738Q1139.8812949663197 484.8166890276422 1144.8874753416121 475.22150997499796Q1149.893655716905 465.62633092235376 1158.654471373667 460.3652061760971Q1167.4152870304292 455.1040814298405 1178.910960484805 455.1040814298405L1178.910960484805 455.1040814298405Q1195.4359910754702 455.1040814298405 1204.7762257571503 465.69586120534393Q1214.1396371998271 476.28764098084736 1214.1396371998271 494.8290497782275L1214.1396371998271 494.8290497782275Q1214.1396371998271 499.9974674804972 1208.2990934286527 499.9974674804972L1208.2990934286527 499.9974674804972L1153.0456952124596 499.9974674804972Q1153.7178212813646 513.8339937955421 1161.0648545173267 521.1114967485139Q1168.4118877532883 528.3658229404889 1181.4140506724511 528.3658229404889L1181.4140506724511 528.3658229404889Q1186.9301197896718 528.3658229404889 1192.6084262338695 526.9520405196886Q1198.286732678067 525.5150813378916 1203.6173877073138 521.8531531004091L1203.6173877073138 521.8531531004091Q1207.4647300327704 519.3500629127627 1210.0373505034067 520.8565523775499Q1212.63314773504 522.363041842337 1212.7026780180304 525.4455510549014Q1212.7953850620172 528.5280602674659 1209.2956941515117 530.8689131281352L1209.2956941515117 530.8689131281352Q1203.779625034291 534.8784927805686 1196.2008241883618 537.0339315532641Q1188.5988465814362 539.2125470869563 1181.4140506724511 539.2125470869563ZM1179.2586118997558 465.1164421804258L1179.2586118997558 465.1164421804258Q1167.7397616843834 465.1164421804258 1161.0648545173267 472.3012380894106Q1154.3899473502697 479.4628572373987 1153.2311093004332 491.1439447797482L1153.2311093004332 491.1439447797482L1202.4585496574778 491.1439447797482Q1201.9486609155497 478.79073116849366 1196.0154101003882 471.9535866744597Q1190.105336046223 465.1164421804258 1179.2586118997558 465.1164421804258ZM1240.491614453104 538.8648956720053L1240.491614453104 538.8648956720053Q1233.65446995907 538.8648956720053 1233.65446995907 531.8655138509944L1233.65446995907 531.8655138509944L1233.65446995907 462.28887733882533Q1233.65446995907 455.42855608379466 1240.1671397991497 455.42855608379466L1240.1671397991497 455.42855608379466Q1246.8420469662065 455.42855608379466 1246.8420469662065 462.28887733882533L1246.8420469662065 462.28887733882533L1246.8420469662065 471.11922327857764Q1250.179500549735 463.44771538866155 1257.1788823707461 459.36860545323793Q1264.2014409527537 455.26631875681755 1273.866150288388 454.9418441028634L1273.866150288388 454.9418441028634Q1279.2199820786316 454.4319553609355 1279.5444567325858 460.2724991321102L1279.5444567325858 460.2724991321102Q1280.0543454745136 466.11304290328496 1273.541675634434 466.78516897219L1273.541675634434 466.78516897219L1270.8763481198107 467.10964362614413Q1259.357497904438 468.12942111000007 1253.3547168062862 474.3871465791159Q1247.3287589471379 480.64487204823166 1247.3287589471379 491.49159619469907L1247.3287589471379 491.49159619469907L1247.3287589471379 531.8655138509944Q1247.3287589471379 538.8648956720053 1240.491614453104 538.8648956720053ZM1300.0790669756843 437.0725613743883L1300.0790669756843 437.0725613743883Q1291.2255442749351 437.0725613743883 1291.2255442749351 428.7289274155672L1291.2255442749351 428.7289274155672Q1291.2255442749351 420.57070754471994 1300.0790669756843 420.57070754471994L1300.0790669756843 420.57070754471994Q1308.9094129154366 420.57070754471994 1308.9094129154366 428.7289274155672L1308.9094129154366 428.7289274155672Q1308.9094129154366 437.0725613743883 1300.0790669756843 437.0725613743883ZM1300.0790669756843 538.5404210180512L1300.0790669756843 538.5404210180512Q1293.4041598086274 538.5404210180512 1293.4041598086274 531.1933877820893L1293.4041598086274 531.1933877820893L1293.4041598086274 462.93782664673364Q1293.4041598086274 455.7762074987455 1300.0790669756843 455.7762074987455L1300.0790669756843 455.7762074987455Q1306.9162114697183 455.7762074987455 1306.9162114697183 462.93782664673364L1306.9162114697183 462.93782664673364L1306.9162114697183 531.1933877820893Q1306.9162114697183 538.5404210180512 1300.0790669756843 538.5404210180512ZM1368.6591027649943 539.2125470869563L1368.6591027649943 539.2125470869563Q1349.4687446597059 539.2125470869563 1338.2743690982875 527.9486412425479Q1327.1031702978657 516.6847353981393 1327.1031702978657 497.3321399658738L1327.1031702978657 497.3321399658738Q1327.1031702978657 484.8166890276422 1332.1093506731586 475.22150997499796Q1337.1155310484514 465.62633092235376 1345.8763467052136 460.3652061760971Q1354.6371623619752 455.1040814298405 1366.156012577348 455.1040814298405L1366.156012577348 455.1040814298405Q1382.6810431680128 455.1040814298405 1392.0212778496934 465.69586120534393Q1401.3615125313736 476.28764098084736 1401.3615125313736 494.8290497782275L1401.3615125313736 494.8290497782275Q1401.3615125313736 499.9974674804972 1395.5209687601987 499.9974674804972L1395.5209687601987 499.9974674804972L1340.2907473050027 499.9974674804972Q1340.9628733739078 513.8339937955421 1348.2867298488727 521.1114967485139Q1355.6337630848348 528.3658229404889 1368.6591027649943 528.3658229404889L1368.6591027649943 528.3658229404889Q1374.151995121218 528.3658229404889 1379.8303015654155 526.9520405196886Q1385.5086080096135 525.5150813378916 1390.8392630388603 521.8531531004091L1390.8392630388603 521.8531531004091Q1394.6866053643166 519.3500629127627 1397.2824025959499 520.8565523775499Q1399.8550230665865 522.363041842337 1399.9477301105735 525.4455510549014Q1400.0172603935634 528.5280602674659 1396.5175694830577 530.8689131281352L1396.5175694830577 530.8689131281352Q1391.024677126834 534.8784927805686 1383.4226995199083 537.0339315532641Q1375.8207219129822 539.2125470869563 1368.6591027649943 539.2125470869563ZM1366.480487231302 465.1164421804258L1366.480487231302 465.1164421804258Q1354.9616370159297 465.1164421804258 1348.2867298488727 472.3012380894106Q1341.6118226818157 479.4628572373987 1340.4529846319797 491.1439447797482L1340.4529846319797 491.1439447797482L1389.6804249890238 491.1439447797482Q1389.1705362470962 478.79073116849366 1383.2604621929313 471.9535866744597Q1377.3272113777693 465.1164421804258 1366.480487231302 465.1164421804258ZM1448.2481000277485 539.2125470869563L1448.2481000277485 539.2125470869563Q1440.7388294648094 539.2125470869563 1433.1600286188805 537.288875924228Q1425.5580510119548 535.3652047614999 1419.0453811718749 531.0311504551123L1419.0453811718749 531.0311504551123Q1416.0555790032972 529.200186336371 1416.1251092862876 526.2799144507836Q1416.2178163302742 523.3596425651963 1418.3732551029698 521.690915773432Q1420.551870636662 520.0221889816678 1423.8893242201902 521.690915773432L1423.8893242201902 521.690915773432Q1430.4019940602702 525.7004954258655 1436.4974822024087 527.2765151736428Q1442.569793583551 528.8525349214201 1448.5957514426996 528.8525349214201L1448.5957514426996 528.8525349214201Q1458.0982234513567 528.8525349214201 1462.9421664996726 525.3528440109146Q1467.786109547988 521.8531531004091 1467.786109547988 515.8503720022572L1467.786109547988 515.8503720022572Q1467.786109547988 511.1686662809188 1464.6108932914367 508.4106317223085Q1461.4356770348854 505.6757739246949 1454.5985325408515 504.1692844599078L1454.5985325408515 504.1692844599078L1439.4177540879964 500.83183087637934Q1418.7209065179204 496.31236248201793 1418.7209065179204 479.4628572373987L1418.7209065179204 479.4628572373987Q1418.7209065179204 468.4538957639542 1427.481722174683 461.77898859689736Q1436.2425378314451 455.1040814298405 1450.4267155614407 455.1040814298405L1450.4267155614407 455.1040814298405Q1457.588334709429 455.1040814298405 1464.2632418764856 457.0277525925687Q1470.9381490435426 458.9514237552969 1476.291980833786 463.12324073470745L1476.291980833786 463.12324073470745Q1479.1195456753867 465.1164421804258 1478.7950710214322 467.94400702202626Q1478.4474196064816 470.7947486246235 1476.199273789799 472.3707683724008Q1473.9511279731169 473.9699648811748 1470.7759117165656 471.9535866744597L1470.7759117165656 471.9535866744597Q1465.7697313412727 468.61613309093127 1460.6013136390034 467.04011334315396Q1455.4328959367335 465.44091683437995 1450.4267155614407 465.44091683437995L1450.4267155614407 465.44091683437995Q1441.0864808797605 465.44091683437995 1436.2425378314451 469.12602183285924Q1431.3985947831293 472.7879500703418 1431.3985947831293 478.79073116849366L1431.3985947831293 478.79073116849366Q1431.3985947831293 488.15414261117064 1443.7518083943837 490.81947012579406L1443.7518083943837 490.81947012579406L1458.9325868472388 493.9946863823454Q1469.617073666729 496.31236248201793 1475.109966022953 501.4112499012975Q1480.6260351401738 506.510137320577 1480.6260351401738 515.1782459333522L1480.6260351401738 515.1782459333522Q1480.6260351401738 526.3494447337738 1471.7725124394246 532.7925842908634Q1462.9421664996726 539.2125470869563 1448.2481000277485 539.2125470869563ZM1528.5092233594078 539.2125470869563L1528.5092233594078 539.2125470869563Q1520.9999527964692 539.2125470869563 1513.4211519505398 537.288875924228Q1505.8191743436141 535.3652047614999 1499.3065045035341 531.0311504551123L1499.3065045035341 531.0311504551123Q1496.3167023349565 529.200186336371 1496.386232617947 526.2799144507836Q1496.478939661934 523.3596425651963 1498.6575551956257 521.690915773432Q1500.8129939683213 520.0221889816678 1504.1504475518495 521.690915773432L1504.1504475518495 521.690915773432Q1510.6631173919295 525.7004954258655 1516.7586055340685 527.2765151736428Q1522.854093676207 528.8525349214201 1528.8568747743589 528.8525349214201L1528.8568747743589 528.8525349214201Q1538.359346783016 528.8525349214201 1543.2032898313319 525.3528440109146Q1548.0472328796473 521.8531531004091 1548.0472328796473 515.8503720022572L1548.0472328796473 515.8503720022572Q1548.0472328796473 511.1686662809188 1544.872016623096 508.4106317223085Q1541.6968003665447 505.6757739246949 1534.8596558725108 504.1692844599078L1534.8596558725108 504.1692844599078L1519.6788774196557 500.83183087637934Q1498.9820298495802 496.31236248201793 1498.9820298495802 479.4628572373987L1498.9820298495802 479.4628572373987Q1498.9820298495802 468.4538957639542 1507.7428455063423 461.77898859689736Q1516.5036611631044 455.1040814298405 1530.6878388931 455.1040814298405L1530.6878388931 455.1040814298405Q1537.872634802085 455.1040814298405 1544.547541969142 457.0277525925687Q1551.2224491361985 458.9514237552969 1556.5531041654453 463.12324073470745L1556.5531041654453 463.12324073470745Q1559.380669007046 465.1164421804258 1559.0561943530915 467.94400702202626Q1558.7317196991376 470.7947486246235 1556.4603971214583 472.3707683724008Q1554.2122513047761 473.9699648811748 1551.0370350482249 471.9535866744597L1551.0370350482249 471.9535866744597Q1546.030854672932 468.61613309093127 1540.8624369706627 467.04011334315396Q1535.6940192683928 465.44091683437995 1530.6878388931 465.44091683437995L1530.6878388931 465.44091683437995Q1521.3476042114198 465.44091683437995 1516.5036611631044 469.12602183285924Q1511.6597181147886 472.7879500703418 1511.6597181147886 478.79073116849366L1511.6597181147886 478.79073116849366Q1511.6597181147886 488.15414261117064 1524.012931726043 490.81947012579406L1524.012931726043 490.81947012579406L1539.193710178898 493.9946863823454Q1549.8781969983888 496.31236248201793 1555.3942661156093 501.4112499012975Q1560.8871584718331 506.510137320577 1560.8871584718331 515.1782459333522L1560.8871584718331 515.1782459333522Q1560.8871584718331 526.3494447337738 1552.056812532081 532.7925842908634Q1543.2032898313319 539.2125470869563 1528.5092233594078 539.2125470869563ZM1588.0966758819886 538.8648956720053L1588.0966758819886 538.8648956720053Q1581.4217687149317 538.8648956720053 1581.4217687149317 531.8655138509944L1581.4217687149317 531.8655138509944L1581.4217687149317 425.73912524698966Q1581.4217687149317 418.90198075295575 1588.0966758819886 418.90198075295575L1588.0966758819886 418.90198075295575Q1594.9338203760226 418.90198075295575 1594.9338203760226 425.73912524698966L1594.9338203760226 425.73912524698966L1594.9338203760226 469.96038522874136Q1598.943400028456 462.6133519927795 1606.197726220431 458.85871671130997Q1613.452052412406 455.1040814298405 1622.467812440132 455.1040814298405L1622.467812440132 455.1040814298405Q1651.3460566420517 455.1040814298405 1651.3460566420517 487.1343651273147L1651.3460566420517 487.1343651273147L1651.3460566420517 531.8655138509944Q1651.3460566420517 538.8648956720053 1644.6711494749948 538.8648956720053L1644.6711494749948 538.8648956720053Q1637.8108282199642 538.8648956720053 1637.8108282199642 531.8655138509944L1637.8108282199642 531.8655138509944L1637.8108282199642 487.96872852319683Q1637.8108282199642 476.6352923957982 1633.4072436305864 471.3741676495416Q1628.9804822802116 466.11304290328496 1619.2925961835804 466.11304290328496L1619.2925961835804 466.11304290328496Q1608.121397383159 466.11304290328496 1601.516020499092 473.0428944413058Q1594.9338203760226 479.97274597932665 1594.9338203760226 491.49159619469907L1594.9338203760226 491.49159619469907L1594.9338203760226 531.8655138509944Q1594.9338203760226 538.8648956720053 1588.0966758819886 538.8648956720053ZM1701.7323350489323 539.2125470869563L1701.7323350489323 539.2125470869563Q1693.3887010901112 539.2125470869563 1686.8065009670408 535.944623786418Q1680.2011240829747 532.6998772468764 1676.3769585185146 527.0215708026788Q1672.5296161930582 521.3432643584811 1672.5296161930582 514.3438825374701L1672.5296161930582 514.3438825374701Q1672.5296161930582 505.4903598367211 1677.11861487041 500.3219421344514Q1681.7076135477614 495.15352443218165 1692.2993933232651 492.90537861549933Q1702.8911730987684 490.65723279881695 1721.2471678081747 490.65723279881695L1721.2471678081747 490.65723279881695L1726.6009995984182 490.65723279881695L1726.6009995984182 485.4656383355505Q1726.6009995984182 475.1288029310111 1722.3364755750208 470.5398042536595Q1718.09512831262 465.9508055763079 1708.7317168699433 465.9508055763079L1708.7317168699433 465.9508055763079Q1702.8911730987684 465.9508055763079 1696.9810990446035 467.45729504109505Q1691.047848229442 468.9637845058822 1684.7205924773357 472.3012380894106L1684.7205924773357 472.3012380894106Q1681.8698508747384 473.784550793201 1679.9461797120107 472.88065711432876Q1678.0456853102792 471.9535866744597 1677.280852197387 469.8676781847545Q1676.539195845492 467.7817696950492 1677.280852197387 465.5336238783668Q1678.0456853102792 463.2854780616845 1680.5487754979254 462.1034632508515L1680.5487754979254 462.1034632508515Q1687.7103946459133 458.44153501336893 1694.9647208378883 456.7728082216047Q1702.24222379086 455.1040814298405 1708.7317168699433 455.1040814298405L1708.7317168699433 455.1040814298405Q1724.422384064726 455.1040814298405 1732.024361671652 462.77558931975653Q1739.603162517581 470.44709720967256 1739.603162517581 486.6476531463835L1739.603162517581 486.6476531463835L1739.603162517581 531.8655138509944Q1739.603162517581 538.8648956720053 1733.4381440924521 538.8648956720053L1733.4381440924521 538.8648956720053Q1726.9254742523726 538.8648956720053 1726.9254742523726 531.8655138509944L1726.9254742523726 531.8655138509944L1726.9254742523726 523.6841172191504Q1723.750257995821 530.8689131281352 1717.1680578727514 535.0407301075458Q1710.585857749681 539.2125470869563 1701.7323350489323 539.2125470869563ZM1703.9109505826245 529.037949009394L1703.9109505826245 529.037949009394Q1713.9233113332098 529.037949009394 1720.2505670853157 522.1080974713731Q1726.6009995984182 515.1782459333522 1726.6009995984182 504.4937591138619L1726.6009995984182 504.4937591138619L1726.6009995984182 499.48757873856925L1721.4325818961488 499.48757873856925Q1707.8973534740612 499.48757873856925 1700.1563153011548 500.73912383239247Q1692.3921003672522 501.9906689262156 1689.3095911546875 505.07317813878007Q1686.2039051811262 508.1788641123412 1686.2039051811262 513.509519141588L1686.2039051811262 513.509519141588Q1686.2039051811262 520.346663635622 1690.9783179464516 524.6807179420096Q1695.7295539507804 529.037949009394 1703.9109505826245 529.037949009394ZM1771.3089715611013 568.9019779237614L1771.3089715611013 568.9019779237614Q1764.6340643940443 568.9019779237614 1764.6340643940443 562.0648334297273L1764.6340643940443 562.0648334297273L1764.6340643940443 462.28887733882533Q1764.6340643940443 455.42855608379466 1771.1467342341243 455.42855608379466L1771.1467342341243 455.42855608379466Q1777.9838787281583 455.42855608379466 1777.9838787281583 462.28887733882533L1777.9838787281583 462.28887733882533L1777.9838787281583 470.95698595160053Q1781.5067463996602 463.60995271563866 1788.8306028746256 459.36860545323793Q1796.1776361105876 455.1040814298405 1805.7032848802414 455.1040814298405L1805.7032848802414 455.1040814298405Q1816.5500090267087 455.1040814298405 1824.6386986145662 460.20296884912005Q1832.7273882024233 465.27867950740284 1837.1541495527977 474.71162123307005Q1841.580910903172 484.1445629587372 1841.580910903172 497.14672587790005L1841.580910903172 497.14672587790005Q1841.580910903172 510.0098282310825 1837.1541495527977 519.4427699567497Q1832.7273882024233 528.8525349214201 1824.6386986145662 534.0441293846866Q1816.5500090267087 539.2125470869563 1805.7032848802414 539.2125470869563L1805.7032848802414 539.2125470869563Q1796.3398734375646 539.2125470869563 1789.0160169625992 535.0407301075458Q1781.6689837266376 530.8689131281352 1778.169292816132 523.5218798921733L1778.169292816132 523.5218798921733L1778.169292816132 562.0648334297273Q1778.169292816132 568.9019779237614 1771.3089715611013 568.9019779237614ZM1802.8525432776441 528.3658229404889L1802.8525432776441 528.3658229404889Q1814.2091561660395 528.3658229404889 1821.0463006600735 520.2771333526318Q1827.8834451541074 512.1652670037779 1827.8834451541074 497.14672587790005L1827.8834451541074 497.14672587790005Q1827.8834451541074 481.965947425045 1821.0463006600735 473.9699648811748Q1814.2091561660395 465.9508055763079 1802.8525432776441 465.9508055763079L1802.8525432776441 465.9508055763079Q1791.5191071502454 465.9508055763079 1784.6587858952153 473.9699648811748Q1777.8216414011808 481.965947425045 1777.8216414011808 497.14672587790005L1777.8216414011808 497.14672587790005Q1777.8216414011808 512.1652670037779 1784.6587858952153 520.2771333526318Q1791.5191071502454 528.3658229404889 1802.8525432776441 528.3658229404889ZM1898.4798591501326 539.2125470869563L1898.4798591501326 539.2125470869563Q1879.2895010448442 539.2125470869563 1868.0951254834258 527.9486412425479Q1856.923926683004 516.6847353981393 1856.923926683004 497.3321399658738L1856.923926683004 497.3321399658738Q1856.923926683004 484.8166890276422 1861.930107058297 475.22150997499796Q1866.9362874335898 465.62633092235376 1875.697103090352 460.3652061760971Q1884.4579187471136 455.1040814298405 1895.976768962486 455.1040814298405L1895.976768962486 455.1040814298405Q1912.5017995531512 455.1040814298405 1921.8420342348313 465.69586120534393Q1931.182268916512 476.28764098084736 1931.182268916512 494.8290497782275L1931.182268916512 494.8290497782275Q1931.182268916512 499.9974674804972 1925.341725145337 499.9974674804972L1925.341725145337 499.9974674804972L1870.111503690141 499.9974674804972Q1870.7836297590457 513.8339937955421 1878.107486234011 521.1114967485139Q1885.454519469973 528.3658229404889 1898.4798591501326 528.3658229404889L1898.4798591501326 528.3658229404889Q1903.9727515063564 528.3658229404889 1909.6510579505539 526.9520405196886Q1915.3293643947518 525.5150813378916 1920.6600194239986 521.8531531004091L1920.6600194239986 521.8531531004091Q1924.507361749455 519.3500629127627 1927.1031589810882 520.8565523775499Q1929.6757794517248 522.363041842337 1929.7684864957114 525.4455510549014Q1929.8380167787013 528.5280602674659 1926.338325868196 530.8689131281352L1926.338325868196 530.8689131281352Q1920.8454335119723 534.8784927805686 1913.2434559050466 537.0339315532641Q1905.6414782981205 539.2125470869563 1898.4798591501326 539.2125470869563ZM1896.3012436164404 465.1164421804258L1896.3012436164404 465.1164421804258Q1884.782393401068 465.1164421804258 1878.107486234011 472.3012380894106Q1871.432579066954 479.4628572373987 1870.273741017118 491.1439447797482L1870.273741017118 491.1439447797482L1919.5011813741626 491.1439447797482Q1918.991292632234 478.79073116849366 1913.0812185780692 471.9535866744597Q1907.1479677629077 465.1164421804258 1896.3012436164404 465.1164421804258ZM1975.4035288982636 539.2125470869563L1975.4035288982636 539.2125470869563Q1963.3979667019598 539.2125470869563 1957.0475341888568 531.9582208949813Q1950.6971016757543 524.6807179420096 1950.6971016757543 510.84419162696463L1950.6971016757543 510.84419162696463L1950.6971016757543 425.73912524698966Q1950.6971016757543 418.90198075295575 1957.3720088428113 418.90198075295575L1957.3720088428113 418.90198075295575Q1964.232330097842 418.90198075295575 1964.232330097842 425.73912524698966L1964.232330097842 425.73912524698966L1964.232330097842 509.84759090410546Q1964.232330097842 527.6936968715838 1978.416507827838 527.6936968715838L1978.416507827838 527.6936968715838Q1979.899820531628 527.6936968715838 1981.081835342461 527.5314595446068Q1982.2406733922971 527.3692222176297 1983.4226882031303 527.3692222176297L1983.4226882031303 527.3692222176297Q1985.2536523218719 527.1838081296559 1985.9953086737669 528.2035856135118Q1986.760141786659 529.200186336371 1986.760141786659 532.1899885049486L1986.760141786659 532.1899885049486Q1986.760141786659 537.8682949491463 1981.081835342461 538.7026583450283L1981.081835342461 538.7026583450283Q1979.737583204651 539.0503097599792 1978.2310937398638 539.1198400429694Q1976.7477810360733 539.2125470869563 1975.4035288982636 539.2125470869563ZM2035.8021680557295 539.2125470869563L2035.8021680557295 539.2125470869563Q2016.611809950441 539.2125470869563 2005.4406111500193 527.9486412425479Q1994.2694123495976 516.6847353981393 1994.2694123495976 497.3321399658738L1994.2694123495976 497.3321399658738Q1994.2694123495976 484.8166890276422 1999.2755927248904 475.22150997499796Q2004.2817731001828 465.62633092235376 2013.0425887569454 460.3652061760971Q2021.8034044137075 455.1040814298405 2033.2990778680833 455.1040814298405L2033.2990778680833 455.1040814298405Q2049.8241084587485 455.1040814298405 2059.1643431404286 465.69586120534393Q2068.5277545831054 476.28764098084736 2068.5277545831054 494.8290497782275L2068.5277545831054 494.8290497782275Q2068.5277545831054 499.9974674804972 2062.6872108119305 499.9974674804972L2062.6872108119305 499.9974674804972L2007.4338125957374 499.9974674804972Q2008.105938664643 513.8339937955421 2015.4529719006046 521.1114967485139Q2022.8000051365666 528.3658229404889 2035.8021680557295 528.3658229404889L2035.8021680557295 528.3658229404889Q2041.31823717295 528.3658229404889 2046.9965436171478 526.9520405196886Q2052.6748500613453 525.5150813378916 2058.005505090592 521.8531531004091L2058.005505090592 521.8531531004091Q2061.8528474160485 519.3500629127627 2064.425467886685 520.8565523775499Q2067.0212651183183 522.363041842337 2067.0907954013082 525.4455510549014Q2067.1835024452953 528.5280602674659 2063.6838115347896 530.8689131281352L2063.6838115347896 530.8689131281352Q2058.167742417569 534.8784927805686 2050.58894157164 537.0339315532641Q2042.986963964714 539.2125470869563 2035.8021680557295 539.2125470869563ZM2033.646729283034 465.1164421804258L2033.646729283034 465.1164421804258Q2022.1278790676615 465.1164421804258 2015.4529719006046 472.3012380894106Q2008.778064733548 479.4628572373987 2007.6192266837115 491.1439447797482L2007.6192266837115 491.1439447797482L2056.8466670407556 491.1439447797482Q2056.336778298828 478.79073116849366 2050.4035274836665 471.9535866744597Q2044.4934534295012 465.1164421804258 2033.646729283034 465.1164421804258ZM2120.58275978175 539.2125470869563L2120.58275978175 539.2125470869563Q2106.236344724777 539.2125470869563 2099.0515488157926 531.6105694800303Q2091.8899296678046 524.0317686341012 2091.8899296678046 509.66217681613165L2091.8899296678046 509.66217681613165L2091.8899296678046 467.10964362614413L2080.6955541063858 467.10964362614413Q2074.8550103352113 467.10964362614413 2074.8550103352113 461.77898859689736L2074.8550103352113 461.77898859689736Q2074.8550103352113 456.61057089462764 2080.6955541063858 456.61057089462764L2080.6955541063858 456.61057089462764L2091.8899296678046 456.61057089462764L2091.8899296678046 437.4202127893392Q2091.8899296678046 430.5830682953052 2098.727074161838 430.5830682953052L2098.727074161838 430.5830682953052Q2105.401981328895 430.5830682953052 2105.401981328895 437.4202127893392L2105.401981328895 437.4202127893392L2105.401981328895 456.61057089462764L2126.423303552925 456.61057089462764Q2132.2638473240995 456.61057089462764 2132.2638473240995 461.77898859689736L2132.2638473240995 461.77898859689736Q2132.2638473240995 467.10964362614413 2126.423303552925 467.10964362614413L2126.423303552925 467.10964362614413L2105.401981328895 467.10964362614413L2105.401981328895 508.3411014393183Q2105.401981328895 517.8435734479756 2109.4115609813284 522.780223540278Q2113.3979638727656 527.6936968715838 2122.4137239004913 527.6936968715838L2122.4137239004913 527.6936968715838Q2125.588940157043 527.6936968715838 2127.767555690735 527.0215708026788Q2129.9229944634303 526.3494447337738 2131.591721255195 526.3494447337738L2131.591721255195 526.3494447337738Q2133.0982107199816 526.1872074067967 2134.094811442841 527.3692222176297Q2135.0914121657 528.5280602674659 2135.0914121657 531.3556251090664L2135.0914121657 531.3556251090664Q2135.0914121657 533.3720033157815 2134.3497558138047 535.0407301075458Q2133.6080994619097 536.70945689931 2131.7539585821714 537.381582968215L2131.7539585821714 537.381582968215Q2129.7607571364533 538.0305322761233 2126.5160105969117 538.6331280620382Q2123.2480872963733 539.2125470869563 2120.58275978175 539.2125470869563Z " fill="#a04ef6" transform="matrix(0.4098184925414621,0,0,0.4098184925414621,0,97.5898393232478)"/></g></svg>